# xmcd
# 
# Track frame offsets:
#     150
#     8221
#     18832
#     29914
#     40910
#     53053
#     63676
#     73889
#     85650
#     92521
#     103807
#     115780
#     126700
#     135028
#     146235
#     159027
#     172736
#     181152
#     194037
#     204087
#     212885
#     222069
#     236183
#     247218
#     257960
#     269113
#     278777
# 
# Disc length: 3849
# 
# Revision: 0
# Processed by: cddbd v1.5.2PL0 Copyright (c) Steve Scherf et al.
# Submitted via: BonkEnc v1.0.8
# 
DISCID=990f071b
DTITLE=吉俣良 - NHK大河ドラマ オリジナル・サウンドトラック「篤姫 其ノ二」
DYEAR=2008
DGENRE=Blues
TTITLE0=雲のみ行く
TTITLE1=守や守や(すやすや)
TTITLE2=いとおし意
TTITLE3=野砂思砂
TTITLE4=内幸(うちさいわい)
TTITLE5=こころ降る
TTITLE6=すすむ花
TTITLE7=桜島わらふ
TTITLE8=得ルヲ無イ意、得ル我意
TTITLE9=義苦捨九
TTITLE10=愉芽(ゆめ) 
TTITLE11=仮名し意
TTITLE12=他意切(たいせつ)
TTITLE13=痛し刀功(いたしかたなく)
TTITLE14=枠ノ外ニ咲ク花
TTITLE15=深宿
TTITLE16=突き夜(つきよ) 
TTITLE17=嬉し涙
TTITLE18=刀ハ散リ 花ハ散ラズ
TTITLE19=砂打芽
TTITLE20=議云わぬ山
TTITLE21=雪クル雪ユク
TTITLE22=意思誇路
TTITLE23=花意書く(かいかく)
TTITLE24=篤姫紀行::双頭の風 (ボーナス・トラック) 
TTITLE25=篤姫紀行::素輝(すき) (ボーナス・トラック) 
TTITLE26=篤姫紀行::素こやか (ボーナス・トラック)
EXTD=
EXTT0=
EXTT1=
EXTT2=
EXTT3=
EXTT4=
EXTT5=
EXTT6=
EXTT7=
EXTT8=
EXTT9=
EXTT10=
EXTT11=
EXTT12=
EXTT13=
EXTT14=
EXTT15=
EXTT16=
EXTT17=
EXTT18=
EXTT19=
EXTT20=
EXTT21=
EXTT22=
EXTT23=
EXTT24=
EXTT25=
EXTT26=
PLAYORDER=
